REM DIRINDEX 1\2,1\3,1\4,1\5
REM DIRNAME cjc004,folder01,folder02,folder03,folder04
TITLE ""
FILE "1Q_t_1699-1708.mp3" MP3
  TRACK 01 AUDIO
    TITLE "3:cjc004_6004"
    INDEX 01 00:00:00
  TRACK 02 AUDIO
    TITLE "0:"
    INDEX 01 00:01:11
  TRACK 03 AUDIO
    TITLE "4:cjc004_6005"
    INDEX 01 00:01:36
  TRACK 04 AUDIO
    TITLE "0:"
    INDEX 01 00:02:59
  TRACK 05 AUDIO
    TITLE "5:cjc004_6006"
    INDEX 01 00:03:12
  TRACK 06 AUDIO
    TITLE "0:"
    INDEX 01 00:07:51
  TRACK 07 AUDIO
    TITLE "3:cjc004_6007"
    INDEX 01 00:08:28
  TRACK 08 AUDIO
    TITLE "0:"
    INDEX 01 00:09:47
  TRACK 09 AUDIO
    TITLE "4:cjc004_6008"
    INDEX 01 00:10:04
  TRACK 10 AUDIO
    TITLE "0:"
    INDEX 01 00:11:33
  TRACK 11 AUDIO
    TITLE "5:cjc004_6009"
    INDEX 01 00:11:56
  TRACK 12 AUDIO
    TITLE "0:"
    INDEX 01 00:17:57
  TRACK 13 AUDIO
    TITLE "3:cjc004_6010"
    INDEX 01 00:18:31
  TRACK 14 AUDIO
    TITLE "0:"
    INDEX 01 00:19:36
  TRACK 15 AUDIO
    TITLE "4:cjc004_6011"
    INDEX 01 00:19:69
  TRACK 16 AUDIO
    TITLE "0:"
    INDEX 01 00:21:23
  TRACK 17 AUDIO
    TITLE "5:cjc004_6012"
    INDEX 01 00:21:45
  TRACK 18 AUDIO
    TITLE "0:"
    INDEX 01 00:25:33
  TRACK 19 AUDIO
    TITLE "3:cjc004_6013"
    INDEX 01 00:26:15
  TRACK 20 AUDIO
    TITLE "0:"
    INDEX 01 00:27:47
  TRACK 21 AUDIO
    TITLE "4:cjc004_6014"
    INDEX 01 00:28:04
  TRACK 22 AUDIO
    TITLE "0:"
    INDEX 01 00:29:33
  TRACK 23 AUDIO
    TITLE "5:cjc004_6015"
    INDEX 01 00:29:64
  TRACK 24 AUDIO
    TITLE "0:"
    INDEX 01 00:34:02
  TRACK 25 AUDIO
    TITLE "3:cjc004_6016"
    INDEX 01 00:34:57
  TRACK 26 AUDIO
    TITLE "0:"
    INDEX 01 00:36:15
  TRACK 27 AUDIO
    TITLE "4:cjc004_6017"
    INDEX 01 00:36:44
  TRACK 28 AUDIO
    TITLE "0:"
    INDEX 01 00:38:20
  TRACK 29 AUDIO
    TITLE "5:cjc004_6018"
    INDEX 01 00:38:47
  TRACK 30 AUDIO
    TITLE "0:"
    INDEX 01 00:42:57
  TRACK 31 AUDIO
    TITLE "3:cjc004_6019"
    INDEX 01 00:43:39
  TRACK 32 AUDIO
    TITLE "0:"
    INDEX 01 00:44:44
  TRACK 33 AUDIO
    TITLE "4:cjc004_6020"
    INDEX 01 00:45:00
  TRACK 34 AUDIO
    TITLE "0:"
    INDEX 01 00:46:00
  TRACK 35 AUDIO
    TITLE "5:cjc004_6021"
    INDEX 01 00:46:23
  TRACK 36 AUDIO
    TITLE "0:"
    INDEX 01 00:51:48
  TRACK 37 AUDIO
    TITLE "3:cjc004_6022"
    INDEX 01 00:52:34
  TRACK 38 AUDIO
    TITLE "0:"
    INDEX 01 00:53:29
  TRACK 39 AUDIO
    TITLE "4:cjc004_6023"
    INDEX 01 00:53:53
  TRACK 40 AUDIO
    TITLE "0:"
    INDEX 01 00:54:56
  TRACK 41 AUDIO
    TITLE "5:cjc004_6024"
    INDEX 01 00:55:08
  TRACK 42 AUDIO
    TITLE "0:"
    INDEX 01 01:00:35
  TRACK 43 AUDIO
    TITLE "3:cjc004_6025"
    INDEX 01 01:01:11
  TRACK 44 AUDIO
    TITLE "0:"
    INDEX 01 01:02:20
  TRACK 45 AUDIO
    TITLE "4:cjc004_6026"
    INDEX 01 01:02:48
  TRACK 46 AUDIO
    TITLE "0:"
    INDEX 01 01:03:65
  TRACK 47 AUDIO
    TITLE "5:cjc004_6027"
    INDEX 01 01:04:15
  TRACK 48 AUDIO
    TITLE "0:"
    INDEX 01 01:09:20
  TRACK 49 AUDIO
    TITLE "3:cjc004_6028"
    INDEX 01 01:09:71
  TRACK 50 AUDIO
    TITLE "0:"
    INDEX 01 01:10:65
  TRACK 51 AUDIO
    TITLE "4:cjc004_6029"
    INDEX 01 01:11:15
  TRACK 52 AUDIO
    TITLE "0:"
    INDEX 01 01:12:44
  TRACK 53 AUDIO
    TITLE "5:cjc004_6030"
    INDEX 01 01:12:70
  TRACK 54 AUDIO
    TITLE "0:"
    INDEX 01 01:16:60
  TRACK 55 AUDIO
    TITLE "3:cjc004_6031"
    INDEX 01 01:17:33
  TRACK 56 AUDIO
    TITLE "0:"
    INDEX 01 01:18:47
  TRACK 57 AUDIO
    TITLE "4:cjc004_6032"
    INDEX 01 01:18:70
  TRACK 58 AUDIO
    TITLE "0:"
    INDEX 01 01:20:08
  TRACK 59 AUDIO
    TITLE "5:cjc004_6033"
    INDEX 01 01:20:30
  TRACK 60 AUDIO
    TITLE "0:"
    INDEX 01 01:24:08
